# xmcd
#
# Track frame offsets: 
#        150
#        5975
#        25355
#        38639
#        56799
#        82481
#        94288
#        112378
#        118998
#        137500
#        140759
#        152258
#        158338
#        169085
#        183962
#
# Disc length: 2545 seconds
#
# Revision: 0
# Processed by: cddbd v1.4PL0 Copyright (c) Steve Scherf et al.
# Submitted via: ExactAudioCopy v0.90b4
#
DISCID=d309ef0f
DTITLE=Pig In A Can - You Can't Poison A Pig
DYEAR=2003
DGENRE=Blues
TTITLE0=Can't Poison A Pig 
TTITLE1=Tied to Get Along
TTITLE2=Don't Leave Me Baby
TTITLE3=Ghost of John Henry
TTITLE4=It's Coming
TTITLE5=Hole In Her Belly
TTITLE6=K.C. Douglas Blues
TTITLE7=The Hog Butcher
TTITLE8=Fresh Feelin's
TTITLE9=Record Players
TTITLE10=$1000 Toasts
TTITLE11=Slim's Roadside Luau
TTITLE12=Slim's B3 Blues
TTITLE13=Big Legged Woman
TTITLE14=Butch Easts Pig In A Can For The First Time
EXTD=
EXTT0=
EXTT1=
EXTT2=
EXTT3=
EXTT4=
EXTT5=
EXTT6=
EXTT7=
EXTT8=
EXTT9=
EXTT10=
EXTT11=
EXTT12=
EXTT13=
EXTT14=
PLAYORDER=
